<svg xmlns="http://www.w3.org/2000/svg" width="1080" height="600" viewBox="0 0 1080 600">
  <rect width="100%" height="100%" fill="#ffffff" />
  <text x="80" y="30" font-family="Arial, sans-serif" font-size="22" font-weight="700" fill="#0f172a">DEAA-Hub Peak Simulation for 3000 Online Users</text>
  <text x="80" y="52" font-family="Arial, sans-serif" font-size="13" fill="#64748b">Model: 20 online users ≈ 1 active request, so 3000 online users ≈ 150 active requests.</text>
  <g font-family="Arial, sans-serif">
<line x1="80" y1="518" x2="1040" y2="518" stroke="#e2e8f0" />
<text x="68" y="522" text-anchor="end" font-size="12" fill="#475569">0</text>
<line x1="80" y1="427.2" x2="1040" y2="427.2" stroke="#e2e8f0" />
<text x="68" y="431.2" text-anchor="end" font-size="12" fill="#475569">1000</text>
<line x1="80" y1="336.4" x2="1040" y2="336.4" stroke="#e2e8f0" />
<text x="68" y="340.4" text-anchor="end" font-size="12" fill="#475569">2000</text>
<line x1="80" y1="245.60000000000002" x2="1040" y2="245.60000000000002" stroke="#e2e8f0" />
<text x="68" y="249.60000000000002" text-anchor="end" font-size="12" fill="#475569">3000</text>
<line x1="80" y1="64" x2="1040" y2="64" stroke="#e2e8f0" />
<text x="68" y="68" text-anchor="end" font-size="12" fill="#475569">5000</text>
    <line x1="80" y1="64" x2="80" y2="518" stroke="#94a3b8" />
    <line x1="80" y1="518" x2="1040" y2="518" stroke="#94a3b8" />
<text x="112" y="558" text-anchor="middle" font-size="13" fill="#475569">5</text>
<text x="144" y="558" text-anchor="middle" font-size="13" fill="#475569">10</text>
<text x="240" y="558" text-anchor="middle" font-size="13" fill="#475569">25</text>
<text x="400" y="558" text-anchor="middle" font-size="13" fill="#475569">50</text>
<text x="1040" y="558" text-anchor="middle" font-size="13" fill="#475569">150</text>
<polyline fill="none" stroke="#0f6b4f" stroke-width="3" points="112,516.184 144,514.1864 240,511.19 400,505.9236 1040,484.858" />
<circle cx="112" cy="516.184" r="5" fill="#0f6b4f" />
<circle cx="144" cy="514.1864" r="5" fill="#0f6b4f" />
<circle cx="240" cy="511.19" r="5" fill="#0f6b4f" />
<circle cx="400" cy="505.9236" r="5" fill="#0f6b4f" />
<circle cx="1040" cy="484.858" r="7" fill="#0f6b4f" stroke="#111827" stroke-width="2" />
<polyline fill="none" stroke="#1d4ed8" stroke-width="3" points="112,517.2736 144,517.092 240,515.3668 400,513.7324 1040,507.1948" />
<circle cx="112" cy="517.2736" r="5" fill="#1d4ed8" />
<circle cx="144" cy="517.092" r="5" fill="#1d4ed8" />
<circle cx="240" cy="515.3668" r="5" fill="#1d4ed8" />
<circle cx="400" cy="513.7324" r="5" fill="#1d4ed8" />
<circle cx="1040" cy="507.1948" r="7" fill="#1d4ed8" stroke="#111827" stroke-width="2" />
    <text x="80" y="584" font-size="13" fill="#64748b">Active concurrent requests</text>
    <text x="18" y="291" transform="rotate(-90 18 291)" font-size="13" fill="#64748b">P95 response time (ms)</text>
    <rect x="780" y="76" width="240" height="112" rx="8" fill="#f8fafc" stroke="#cbd5e1" />
    <line x1="804" y1="104" x2="844" y2="104" stroke="#0f6b4f" stroke-width="3" />
    <text x="856" y="108" font-size="13" fill="#0f172a">API P95</text>
    <line x1="804" y1="130" x2="844" y2="130" stroke="#1d4ed8" stroke-width="3" />
    <text x="856" y="134" font-size="13" fill="#0f172a">Frontend P95</text>
    <circle cx="824" cy="158" r="7" fill="#64748b" stroke="#111827" stroke-width="2" />
    <text x="856" y="162" font-size="13" fill="#0f172a">Projected peak point</text>
  </g>
</svg>
